# xmcd CD database file
#
# Track frame offsets:
#	150
#	43298
#	63148
#	74774
#	87817
#	137168
#	163063
#	176853
#	207722
#	223314
#	234150
#	265783
#	279894
#	291509
#
# Disc length: 4152 seconds
#
# Revision: 1
# Processed by: cddbd v1.5.2PL0 Copyright (c) Steve Scherf et al.
# Submitted via: CDex 1.70beta3
#
DISCID=e510360e
DTITLE=Various Artist - Jazz For You 5 Autumn Leaves
DYEAR=2012
DGENRE=Jazz
TTITLE0=Moanin' - Art Blakey and The Jazz Messengers
TTITLE1=Cleopatra's Dream - Bud Powell
TTITLE2=Fly Me To The Moon - Julie London
TTITLE3=But Beautiful - Johnny Hartman
TTITLE4=Autumn Leaves - Cannonball Adderley
TTITLE5=The Nearness Of You - Jimmy Smith
TTITLE6=But Not For Me - Chet Baker
TTITLE7=Lover Come Back To Me - Donald Byrd
TTITLE8=Sentimental Journey - Dinah Shore
TTITLE9=Cry Me A River - Chris Connor
TTITLE10=Candy - Lee Morgan
TTITLE11=Misty - June Christy
TTITLE12=My One And Only Love - Hank Jones
TTITLE13=Facinatin' Rhythm - Art Pepper
EXTD=YEAR: 2012
EXTT0=
EXTT1=
EXTT2=
EXTT3=
EXTT4=
EXTT5=
EXTT6=
EXTT7=
EXTT8=
EXTT9=
EXTT10=
EXTT11=
EXTT12=
EXTT13=
PLAYORDER=
